<svg width="1024" height="753" viewBox="0 0 1024 753" fill="none" xmlns="http://www.w3.org/2000/svg">
<g clip-path="url(#clip0_122_130)">
<rect width="1024" height="753" fill="#121214"/>
<g opacity="0.2" filter="url(#filter0_f_122_130)">
<ellipse cx="536.5" cy="40" rx="670.5" ry="350" fill="#B3A659"/>
</g>
<path d="M57.0349 276C58.5302 276 59.6622 276.63 60.4308 277.891C61.2134 279.138 61.6047 280.953 61.6047 283.336C61.6047 285.719 61.2134 287.541 60.4308 288.802C59.6622 290.063 58.5302 290.693 57.0349 290.693C55.5536 290.693 54.4216 290.063 53.639 288.802C52.8564 287.541 52.4651 285.719 52.4651 283.336C52.4651 280.967 52.8564 279.152 53.639 277.891C54.4216 276.63 55.5536 276 57.0349 276ZM53.9534 283.336C53.9534 285.026 54.1072 286.35 54.4146 287.306L59.0683 278.099C58.5791 277.448 57.9013 277.122 57.0349 277.122C56.0706 277.122 55.316 277.635 54.771 278.66C54.2259 279.672 53.9534 281.23 53.9534 283.336ZM57.0349 289.55C58.0131 289.55 58.7748 289.044 59.3198 288.033C59.8648 287.008 60.1373 285.442 60.1373 283.336C60.1373 281.549 59.9627 280.163 59.6133 279.18L54.9596 288.469C55.4627 289.19 56.1545 289.55 57.0349 289.55Z" fill="url(#paint0_linear_122_130)" fill-opacity="0.6"/>
<path d="M58.2926 313.135H61.3741V314.236H53.3874V313.135H56.9511V301.455L53.5551 303.471L52.9682 302.536L57.1607 299.959H58.2926V313.135Z" fill="url(#paint1_linear_122_130)" fill-opacity="0.6"/>
<path d="M57.0349 323.502C58.5302 323.502 59.6622 324.133 60.4308 325.393C61.2134 326.64 61.6047 328.455 61.6047 330.838C61.6047 333.221 61.2134 335.043 60.4308 336.304C59.6622 337.565 58.5302 338.195 57.0349 338.195C55.5536 338.195 54.4216 337.565 53.639 336.304C52.8564 335.043 52.4651 333.221 52.4651 330.838C52.4651 328.469 52.8564 326.654 53.639 325.393C54.4216 324.133 55.5536 323.502 57.0349 323.502ZM53.9534 330.838C53.9534 332.529 54.1072 333.852 54.4146 334.808L59.0683 325.601C58.5791 324.95 57.9013 324.624 57.0349 324.624C56.0706 324.624 55.316 325.137 54.771 326.162C54.2259 327.174 53.9534 328.732 53.9534 330.838ZM57.0349 337.052C58.0131 337.052 58.7748 336.546 59.3198 335.535C59.8648 334.51 60.1373 332.944 60.1373 330.838C60.1373 329.051 59.9627 327.665 59.6133 326.682L54.9596 335.971C55.4627 336.692 56.1545 337.052 57.0349 337.052Z" fill="url(#paint2_linear_122_130)" fill-opacity="0.6"/>
<path d="M58.2926 360.637H61.3741V361.738H53.3874V360.637H56.9511V348.957L53.5551 350.973L52.9682 350.038L57.1607 347.461H58.2926V360.637Z" fill="url(#paint3_linear_122_130)" fill-opacity="0.6"/>
<path d="M58.2926 384.388H61.3741V385.489H53.3874V384.388H56.9511V372.708L53.5551 374.724L52.9682 373.789L57.1607 371.212H58.2926V384.388Z" fill="url(#paint4_linear_122_130)" fill-opacity="0.6"/>
<path d="M57.0349 394.755C58.5302 394.755 59.6622 395.386 60.4308 396.646C61.2134 397.893 61.6047 399.708 61.6047 402.091C61.6047 404.474 61.2134 406.296 60.4308 407.557C59.6622 408.818 58.5302 409.448 57.0349 409.448C55.5536 409.448 54.4216 408.818 53.639 407.557C52.8564 406.296 52.4651 404.474 52.4651 402.091C52.4651 399.722 52.8564 397.907 53.639 396.646C54.4216 395.386 55.5536 394.755 57.0349 394.755ZM53.9534 402.091C53.9534 403.782 54.1072 405.105 54.4146 406.061L59.0683 396.854C58.5791 396.203 57.9013 395.878 57.0349 395.878C56.0706 395.878 55.316 396.39 54.771 397.415C54.2259 398.427 53.9534 399.985 53.9534 402.091ZM57.0349 408.305C58.0131 408.305 58.7748 407.8 59.3198 406.788C59.8648 405.763 60.1373 404.197 60.1373 402.091C60.1373 400.304 59.9627 398.919 59.6133 397.935L54.9596 407.225C55.4627 407.945 56.1545 408.305 57.0349 408.305Z" fill="url(#paint5_linear_122_130)" fill-opacity="0.6"/>
<path d="M58.2926 431.89H61.3741V432.992H53.3874V431.89H56.9511V420.21L53.5551 422.226L52.9682 421.291L57.1607 418.714H58.2926V431.89Z" fill="url(#paint6_linear_122_130)" fill-opacity="0.6"/>
<path d="M57.0349 442.257C58.5302 442.257 59.6622 442.888 60.4308 444.149C61.2134 445.396 61.6047 447.211 61.6047 449.594C61.6047 451.977 61.2134 453.798 60.4308 455.059C59.6622 456.32 58.5302 456.95 57.0349 456.95C55.5536 456.95 54.4216 456.32 53.639 455.059C52.8564 453.798 52.4651 451.977 52.4651 449.594C52.4651 447.224 52.8564 445.409 53.639 444.149C54.4216 442.888 55.5536 442.257 57.0349 442.257ZM53.9534 449.594C53.9534 451.284 54.1072 452.607 54.4146 453.563L59.0683 444.356C58.5791 443.705 57.9013 443.38 57.0349 443.38C56.0706 443.38 55.316 443.892 54.771 444.918C54.2259 445.929 53.9534 447.488 53.9534 449.594ZM57.0349 455.807C58.0131 455.807 58.7748 455.302 59.3198 454.29C59.8648 453.265 60.1373 451.699 60.1373 449.594C60.1373 447.806 59.9627 446.421 59.6133 445.437L54.9596 454.727C55.4627 455.447 56.1545 455.807 57.0349 455.807Z" fill="url(#paint7_linear_122_130)" fill-opacity="0.6"/>
<path d="M57.0349 466.008C58.5302 466.008 59.6622 466.639 60.4308 467.9C61.2134 469.147 61.6047 470.962 61.6047 473.345C61.6047 475.728 61.2134 477.549 60.4308 478.81C59.6622 480.071 58.5302 480.701 57.0349 480.701C55.5536 480.701 54.4216 480.071 53.639 478.81C52.8564 477.549 52.4651 475.728 52.4651 473.345C52.4651 470.975 52.8564 469.16 53.639 467.9C54.4216 466.639 55.5536 466.008 57.0349 466.008ZM53.9534 473.345C53.9534 475.035 54.1072 476.358 54.4146 477.314L59.0683 468.107C58.5791 467.456 57.9013 467.131 57.0349 467.131C56.0706 467.131 55.316 467.643 54.771 468.669C54.2259 469.68 53.9534 471.239 53.9534 473.345ZM57.0349 479.558C58.0131 479.558 58.7748 479.053 59.3198 478.041C59.8648 477.016 60.1373 475.451 60.1373 473.345C60.1373 471.557 59.9627 470.172 59.6133 469.188L54.9596 478.478C55.4627 479.198 56.1545 479.558 57.0349 479.558Z" fill="url(#paint8_linear_122_130)" fill-opacity="0.6"/>
<path d="M58.2926 503.143H61.3741V504.245H53.3874V503.143H56.9511V491.464L53.5551 493.48L52.9682 492.544L57.1607 489.967H58.2926V503.143Z" fill="url(#paint9_linear_122_130)" fill-opacity="0.6"/>
<path d="M57.0349 513.511C58.5302 513.511 59.6622 514.141 60.4308 515.402C61.2134 516.649 61.6047 518.464 61.6047 520.847C61.6047 523.23 61.2134 525.052 60.4308 526.312C59.6622 527.573 58.5302 528.204 57.0349 528.204C55.5536 528.204 54.4216 527.573 53.639 526.312C52.8564 525.052 52.4651 523.23 52.4651 520.847C52.4651 518.478 52.8564 516.663 53.639 515.402C54.4216 514.141 55.5536 513.511 57.0349 513.511ZM53.9534 520.847C53.9534 522.537 54.1072 523.86 54.4146 524.816L59.0683 515.61C58.5791 514.958 57.9013 514.633 57.0349 514.633C56.0706 514.633 55.316 515.145 54.771 516.171C54.2259 517.182 53.9534 518.741 53.9534 520.847ZM57.0349 527.061C58.0131 527.061 58.7748 526.555 59.3198 525.543C59.8648 524.518 60.1373 522.953 60.1373 520.847C60.1373 519.059 59.9627 517.674 59.6133 516.69L54.9596 525.98C55.4627 526.7 56.1545 527.061 57.0349 527.061Z" fill="url(#paint10_linear_122_130)" fill-opacity="0.6"/>
<path d="M58.2926 550.645H61.3741V551.747H53.3874V550.645H56.9511V538.966L53.5551 540.982L52.9682 540.046L57.1607 537.469H58.2926V550.645Z" fill="url(#paint11_linear_122_130)" fill-opacity="0.6"/>
<path d="M58.2926 574.396H61.3741V575.498H53.3874V574.396H56.9511V562.717L53.5551 564.733L52.9682 563.798L57.1607 561.221H58.2926V574.396Z" fill="url(#paint12_linear_122_130)" fill-opacity="0.6"/>
<path d="M95.9651 323.502C97.4604 323.502 98.5924 324.133 99.361 325.393C100.144 326.64 100.535 328.455 100.535 330.838C100.535 333.221 100.144 335.043 99.361 336.304C98.5924 337.565 97.4604 338.195 95.9651 338.195C94.4838 338.195 93.3518 337.565 92.5692 336.304C91.7866 335.043 91.3953 333.221 91.3953 330.838C91.3953 328.469 91.7866 326.654 92.5692 325.393C93.3518 324.133 94.4838 323.502 95.9651 323.502ZM92.8836 330.838C92.8836 332.529 93.0374 333.852 93.3448 334.808L97.9985 325.601C97.5093 324.95 96.8315 324.624 95.9651 324.624C95.0008 324.624 94.2462 325.137 93.7012 326.162C93.1561 327.174 92.8836 328.732 92.8836 330.838ZM95.9651 337.052C96.9433 337.052 97.705 336.546 98.25 335.535C98.795 334.51 99.0675 332.944 99.0675 330.838C99.0675 329.051 98.8928 327.665 98.5435 326.682L93.8898 335.971C94.3929 336.692 95.0847 337.052 95.9651 337.052Z" fill="url(#paint13_linear_122_130)" fill-opacity="0.6"/>
<path d="M97.2228 360.637H100.304V361.738H92.3176V360.637H95.8812V348.957L92.4853 350.973L91.8984 350.038L96.0909 347.461H97.2228V360.637Z" fill="url(#paint14_linear_122_130)" fill-opacity="0.6"/>
<path d="M95.9651 371.004C97.4604 371.004 98.5924 371.635 99.361 372.895C100.144 374.142 100.535 375.957 100.535 378.34C100.535 380.723 100.144 382.545 99.361 383.806C98.5924 385.067 97.4604 385.697 95.9651 385.697C94.4838 385.697 93.3518 385.067 92.5692 383.806C91.7866 382.545 91.3953 380.723 91.3953 378.34C91.3953 375.971 91.7866 374.156 92.5692 372.895C93.3518 371.635 94.4838 371.004 95.9651 371.004ZM92.8836 378.34C92.8836 380.031 93.0374 381.354 93.3448 382.31L97.9985 373.103C97.5093 372.452 96.8315 372.126 95.9651 372.126C95.0008 372.126 94.2462 372.639 93.7012 373.664C93.1561 374.676 92.8836 376.234 92.8836 378.34ZM95.9651 384.554C96.9433 384.554 97.705 384.049 98.25 383.037C98.795 382.012 99.0675 380.446 99.0675 378.34C99.0675 376.553 98.8928 375.168 98.5435 374.184L93.8898 383.474C94.3929 384.194 95.0847 384.554 95.9651 384.554Z" fill="url(#paint15_linear_122_130)" fill-opacity="0.6"/>
<path d="M95.9651 394.755C97.4604 394.755 98.5924 395.386 99.361 396.646C100.144 397.893 100.535 399.708 100.535 402.091C100.535 404.474 100.144 406.296 99.361 407.557C98.5924 408.818 97.4604 409.448 95.9651 409.448C94.4838 409.448 93.3518 408.818 92.5692 407.557C91.7866 406.296 91.3953 404.474 91.3953 402.091C91.3953 399.722 91.7866 397.907 92.5692 396.646C93.3518 395.386 94.4838 394.755 95.9651 394.755ZM92.8836 402.091C92.8836 403.782 93.0374 405.105 93.3448 406.061L97.9985 396.854C97.5093 396.203 96.8315 395.878 95.9651 395.878C95.0008 395.878 94.2462 396.39 93.7012 397.415C93.1561 398.427 92.8836 399.985 92.8836 402.091ZM95.9651 408.305C96.9433 408.305 97.705 407.8 98.25 406.788C98.795 405.763 99.0675 404.197 99.0675 402.091C99.0675 400.304 98.8928 398.919 98.5435 397.935L93.8898 407.225C94.3929 407.945 95.0847 408.305 95.9651 408.305Z" fill="url(#paint16_linear_122_130)" fill-opacity="0.6"/>
<path d="M97.2228 431.89H100.304V432.992H92.3176V431.89H95.8812V420.21L92.4853 422.226L91.8984 421.291L96.0909 418.714H97.2228V431.89Z" fill="url(#paint17_linear_122_130)" fill-opacity="0.6"/>
<path d="M95.9651 442.257C97.4604 442.257 98.5924 442.888 99.361 444.149C100.144 445.396 100.535 447.211 100.535 449.594C100.535 451.977 100.144 453.798 99.361 455.059C98.5924 456.32 97.4604 456.95 95.9651 456.95C94.4838 456.95 93.3518 456.32 92.5692 455.059C91.7866 453.798 91.3953 451.977 91.3953 449.594C91.3953 447.224 91.7866 445.409 92.5692 444.149C93.3518 442.888 94.4838 442.257 95.9651 442.257ZM92.8836 449.594C92.8836 451.284 93.0374 452.607 93.3448 453.563L97.9985 444.356C97.5093 443.705 96.8315 443.38 95.9651 443.38C95.0008 443.38 94.2462 443.892 93.7012 444.918C93.1561 445.929 92.8836 447.488 92.8836 449.594ZM95.9651 455.807C96.9433 455.807 97.705 455.302 98.25 454.29C98.795 453.265 99.0675 451.699 99.0675 449.594C99.0675 447.806 98.8928 446.421 98.5435 445.437L93.8898 454.727C94.3929 455.447 95.0847 455.807 95.9651 455.807Z" fill="url(#paint18_linear_122_130)" fill-opacity="0.6"/>
<path d="M97.2228 479.392H100.304V480.494H92.3176V479.392H95.8812V467.713L92.4853 469.728L91.8984 468.793L96.0909 466.216H97.2228V479.392Z" fill="url(#paint19_linear_122_130)" fill-opacity="0.6"/>
<path d="M95.9651 489.76C97.4604 489.76 98.5924 490.39 99.361 491.651C100.144 492.898 100.535 494.713 100.535 497.096C100.535 499.479 100.144 501.301 99.361 502.561C98.5924 503.822 97.4604 504.453 95.9651 504.453C94.4838 504.453 93.3518 503.822 92.5692 502.561C91.7866 501.301 91.3953 499.479 91.3953 497.096C91.3953 494.726 91.7866 492.911 92.5692 491.651C93.3518 490.39 94.4838 489.76 95.9651 489.76ZM92.8836 497.096C92.8836 498.786 93.0374 500.109 93.3448 501.065L97.9985 491.859C97.5093 491.207 96.8315 490.882 95.9651 490.882C95.0008 490.882 94.2462 491.394 93.7012 492.42C93.1561 493.431 92.8836 494.99 92.8836 497.096ZM95.9651 503.31C96.9433 503.31 97.705 502.804 98.25 501.792C98.795 500.767 99.0675 499.202 99.0675 497.096C99.0675 495.308 98.8928 493.923 98.5435 492.939L93.8898 502.229C94.3929 502.949 95.0847 503.31 95.9651 503.31Z" fill="url(#paint20_linear_122_130)" fill-opacity="0.6"/>
<path d="M95.9651 513.511C97.4604 513.511 98.5924 514.141 99.361 515.402C100.144 516.649 100.535 518.464 100.535 520.847C100.535 523.23 100.144 525.052 99.361 526.312C98.5924 527.573 97.4604 528.204 95.9651 528.204C94.4838 528.204 93.3518 527.573 92.5692 526.312C91.7866 525.052 91.3953 523.23 91.3953 520.847C91.3953 518.478 91.7866 516.663 92.5692 515.402C93.3518 514.141 94.4838 513.511 95.9651 513.511ZM92.8836 520.847C92.8836 522.537 93.0374 523.86 93.3448 524.816L97.9985 515.61C97.5093 514.958 96.8315 514.633 95.9651 514.633C95.0008 514.633 94.2462 515.145 93.7012 516.171C93.1561 517.182 92.8836 518.741 92.8836 520.847ZM95.9651 527.061C96.9433 527.061 97.705 526.555 98.25 525.543C98.795 524.518 99.0675 522.953 99.0675 520.847C99.0675 519.059 98.8928 517.674 98.5435 516.69L93.8898 525.98C94.3929 526.7 95.0847 527.061 95.9651 527.061Z" fill="url(#paint21_linear_122_130)" fill-opacity="0.6"/>
<path d="M97.2228 550.645H100.304V551.747H92.3176V550.645H95.8812V538.966L92.4853 540.982L91.8984 540.046L96.0909 537.469H97.2228V550.645Z" fill="url(#paint22_linear_122_130)" fill-opacity="0.6"/>
<path d="M95.9651 561.013C97.4604 561.013 98.5924 561.643 99.361 562.904C100.144 564.151 100.535 565.966 100.535 568.349C100.535 570.732 100.144 572.554 99.361 573.815C98.5924 575.075 97.4604 575.706 95.9651 575.706C94.4838 575.706 93.3518 575.075 92.5692 573.815C91.7866 572.554 91.3953 570.732 91.3953 568.349C91.3953 565.98 91.7866 564.165 92.5692 562.904C93.3518 561.643 94.4838 561.013 95.9651 561.013ZM92.8836 568.349C92.8836 570.039 93.0374 571.362 93.3448 572.318L97.9985 563.112C97.5093 562.461 96.8315 562.135 95.9651 562.135C95.0008 562.135 94.2462 562.648 93.7012 563.673C93.1561 564.684 92.8836 566.243 92.8836 568.349ZM95.9651 574.563C96.9433 574.563 97.705 574.057 98.25 573.046C98.795 572.02 99.0675 570.455 99.0675 568.349C99.0675 566.562 98.8928 565.176 98.5435 564.192L93.8898 573.482C94.3929 574.202 95.0847 574.563 95.9651 574.563Z" fill="url(#paint23_linear_122_130)" fill-opacity="0.6"/>
<path d="M97.2228 598.148H100.304V599.249H92.3176V598.148H95.8812V586.468L92.4853 588.484L91.8984 587.549L96.0909 584.972H97.2228V598.148Z" fill="url(#paint24_linear_122_130)" fill-opacity="0.6"/>
<path d="M97.2228 621.899H100.304V623H92.3176V621.899H95.8812V610.219L92.4853 612.235L91.8984 611.3L96.0909 608.723H97.2228V621.899Z" fill="url(#paint25_linear_122_130)" fill-opacity="0.6"/>
<path d="M37.5698 347.253C39.0651 347.253 40.1971 347.884 40.9657 349.144C41.7483 350.391 42.1396 352.206 42.1396 354.589C42.1396 356.972 41.7483 358.794 40.9657 360.055C40.1971 361.316 39.0651 361.946 37.5698 361.946C36.0885 361.946 34.9565 361.316 34.1739 360.055C33.3913 358.794 33 356.972 33 354.589C33 352.22 33.3913 350.405 34.1739 349.144C34.9565 347.884 36.0885 347.253 37.5698 347.253ZM34.4883 354.589C34.4883 356.28 34.6421 357.603 34.9495 358.559L39.6032 349.352C39.114 348.701 38.4363 348.375 37.5698 348.375C36.6055 348.375 35.8509 348.888 35.3059 349.913C34.7608 350.925 34.4883 352.483 34.4883 354.589ZM37.5698 360.803C38.5481 360.803 39.3097 360.297 39.8547 359.286C40.3997 358.261 40.6722 356.695 40.6722 354.589C40.6722 352.802 40.4976 351.417 40.1482 350.433L35.4945 359.722C35.9976 360.443 36.6894 360.803 37.5698 360.803Z" fill="url(#paint26_linear_122_130)" fill-opacity="0.6"/>
<path d="M37.5698 371.004C39.0651 371.004 40.1971 371.635 40.9657 372.895C41.7483 374.142 42.1396 375.957 42.1396 378.34C42.1396 380.723 41.7483 382.545 40.9657 383.806C40.1971 385.067 39.0651 385.697 37.5698 385.697C36.0885 385.697 34.9565 385.067 34.1739 383.806C33.3913 382.545 33 380.723 33 378.34C33 375.971 33.3913 374.156 34.1739 372.895C34.9565 371.635 36.0885 371.004 37.5698 371.004ZM34.4883 378.34C34.4883 380.031 34.6421 381.354 34.9495 382.31L39.6032 373.103C39.114 372.452 38.4363 372.126 37.5698 372.126C36.6055 372.126 35.8509 372.639 35.3059 373.664C34.7608 374.676 34.4883 376.234 34.4883 378.34ZM37.5698 384.554C38.5481 384.554 39.3097 384.049 39.8547 383.037C40.3997 382.012 40.6722 380.446 40.6722 378.34C40.6722 376.553 40.4976 375.168 40.1482 374.184L35.4945 383.474C35.9976 384.194 36.6894 384.554 37.5698 384.554Z" fill="url(#paint27_linear_122_130)" fill-opacity="0.6"/>
<path d="M38.8276 408.139H41.909V409.24H33.9223V408.139H37.486V396.459L34.09 398.475L33.5031 397.54L37.6956 394.963H38.8276V408.139Z" fill="url(#paint28_linear_122_130)" fill-opacity="0.6"/>
<path d="M37.5698 418.506C39.0651 418.506 40.1971 419.137 40.9657 420.398C41.7483 421.644 42.1396 423.459 42.1396 425.842C42.1396 428.225 41.7483 430.047 40.9657 431.308C40.1971 432.569 39.0651 433.199 37.5698 433.199C36.0885 433.199 34.9565 432.569 34.1739 431.308C33.3913 430.047 33 428.225 33 425.842C33 423.473 33.3913 421.658 34.1739 420.398C34.9565 419.137 36.0885 418.506 37.5698 418.506ZM34.4883 425.842C34.4883 427.533 34.6421 428.856 34.9495 429.812L39.6032 420.605C39.114 419.954 38.4363 419.629 37.5698 419.629C36.6055 419.629 35.8509 420.141 35.3059 421.166C34.7608 422.178 34.4883 423.737 34.4883 425.842ZM37.5698 432.056C38.5481 432.056 39.3097 431.551 39.8547 430.539C40.3997 429.514 40.6722 427.948 40.6722 425.842C40.6722 424.055 40.4976 422.67 40.1482 421.686L35.4945 430.976C35.9976 431.696 36.6894 432.056 37.5698 432.056Z" fill="url(#paint29_linear_122_130)" fill-opacity="0.6"/>
<path d="M38.8276 455.641H41.909V456.743H33.9223V455.641H37.486V443.962L34.09 445.977L33.5031 445.042L37.6956 442.465H38.8276V455.641Z" fill="url(#paint30_linear_122_130)" fill-opacity="0.6"/>
<path d="M38.8276 479.392H41.909V480.494H33.9223V479.392H37.486V467.713L34.09 469.728L33.5031 468.793L37.6956 466.216H38.8276V479.392Z" fill="url(#paint31_linear_122_130)" fill-opacity="0.6"/>
<path d="M77.7577 313.135H80.8392V314.236H72.8525V313.135H76.4162V301.455L73.0202 303.471L72.4333 302.536L76.6258 299.959H77.7577V313.135Z" fill="url(#paint32_linear_122_130)" fill-opacity="0.6"/>
<path d="M76.5 323.502C77.9953 323.502 79.1273 324.133 79.8959 325.393C80.6785 326.64 81.0698 328.455 81.0698 330.838C81.0698 333.221 80.6785 335.043 79.8959 336.304C79.1273 337.565 77.9953 338.195 76.5 338.195C75.0187 338.195 73.8867 337.565 73.1041 336.304C72.3215 335.043 71.9302 333.221 71.9302 330.838C71.9302 328.469 72.3215 326.654 73.1041 325.393C73.8867 324.133 75.0187 323.502 76.5 323.502ZM73.4185 330.838C73.4185 332.529 73.5723 333.852 73.8797 334.808L78.5334 325.601C78.0442 324.95 77.3664 324.624 76.5 324.624C75.5357 324.624 74.7811 325.137 74.2361 326.162C73.691 327.174 73.4185 328.732 73.4185 330.838ZM76.5 337.052C77.4782 337.052 78.2399 336.546 78.7849 335.535C79.3299 334.51 79.6024 332.944 79.6024 330.838C79.6024 329.051 79.4277 327.665 79.0784 326.682L74.4247 335.971C74.9278 336.692 75.6196 337.052 76.5 337.052Z" fill="url(#paint33_linear_122_130)" fill-opacity="0.6"/>
<path d="M77.7577 360.637H80.8392V361.738H72.8525V360.637H76.4162V348.957L73.0202 350.973L72.4333 350.038L76.6258 347.461H77.7577V360.637Z" fill="url(#paint34_linear_122_130)" fill-opacity="0.6"/>
<path d="M77.7577 384.388H80.8392V385.489H72.8525V384.388H76.4162V372.708L73.0202 374.724L72.4333 373.789L76.6258 371.212H77.7577V384.388Z" fill="url(#paint35_linear_122_130)" fill-opacity="0.6"/>
<path d="M76.5 394.755C77.9953 394.755 79.1273 395.386 79.8959 396.646C80.6785 397.893 81.0698 399.708 81.0698 402.091C81.0698 404.474 80.6785 406.296 79.8959 407.557C79.1273 408.818 77.9953 409.448 76.5 409.448C75.0187 409.448 73.8867 408.818 73.1041 407.557C72.3215 406.296 71.9302 404.474 71.9302 402.091C71.9302 399.722 72.3215 397.907 73.1041 396.646C73.8867 395.386 75.0187 394.755 76.5 394.755ZM73.4185 402.091C73.4185 403.782 73.5723 405.105 73.8797 406.061L78.5334 396.854C78.0442 396.203 77.3664 395.878 76.5 395.878C75.5357 395.878 74.7811 396.39 74.2361 397.415C73.691 398.427 73.4185 399.985 73.4185 402.091ZM76.5 408.305C77.4782 408.305 78.2399 407.8 78.7849 406.788C79.3299 405.763 79.6024 404.197 79.6024 402.091C79.6024 400.304 79.4277 398.919 79.0784 397.935L74.4247 407.225C74.9278 407.945 75.6196 408.305 76.5 408.305Z" fill="url(#paint36_linear_122_130)" fill-opacity="0.6"/>
<path d="M77.7577 431.89H80.8392V432.992H72.8525V431.89H76.4162V420.21L73.0202 422.226L72.4333 421.291L76.6258 418.714H77.7577V431.89Z" fill="url(#paint37_linear_122_130)" fill-opacity="0.6"/>
<path d="M77.7577 455.641H80.8392V456.743H72.8525V455.641H76.4162V443.962L73.0202 445.977L72.4333 445.042L76.6258 442.465H77.7577V455.641Z" fill="url(#paint38_linear_122_130)" fill-opacity="0.6"/>
<path d="M76.5 466.008C77.9953 466.008 79.1273 466.639 79.8959 467.9C80.6785 469.147 81.0698 470.962 81.0698 473.345C81.0698 475.728 80.6785 477.549 79.8959 478.81C79.1273 480.071 77.9953 480.701 76.5 480.701C75.0187 480.701 73.8867 480.071 73.1041 478.81C72.3215 477.549 71.9302 475.728 71.9302 473.345C71.9302 470.975 72.3215 469.16 73.1041 467.9C73.8867 466.639 75.0187 466.008 76.5 466.008ZM73.4185 473.345C73.4185 475.035 73.5723 476.358 73.8797 477.314L78.5334 468.107C78.0442 467.456 77.3664 467.131 76.5 467.131C75.5357 467.131 74.7811 467.643 74.2361 468.669C73.691 469.68 73.4185 471.239 73.4185 473.345ZM76.5 479.558C77.4782 479.558 78.2399 479.053 78.7849 478.041C79.3299 477.016 79.6024 475.451 79.6024 473.345C79.6024 471.557 79.4277 470.172 79.0784 469.188L74.4247 478.478C74.9278 479.198 75.6196 479.558 76.5 479.558Z" fill="url(#paint39_linear_122_130)" fill-opacity="0.6"/>
<path d="M77.7577 503.143H80.8392V504.245H72.8525V503.143H76.4162V491.464L73.0202 493.48L72.4333 492.544L76.6258 489.967H77.7577V503.143Z" fill="url(#paint40_linear_122_130)" fill-opacity="0.6"/>
<path d="M76.5 513.511C77.9953 513.511 79.1273 514.141 79.8959 515.402C80.6785 516.649 81.0698 518.464 81.0698 520.847C81.0698 523.23 80.6785 525.052 79.8959 526.312C79.1273 527.573 77.9953 528.204 76.5 528.204C75.0187 528.204 73.8867 527.573 73.1041 526.312C72.3215 525.052 71.9302 523.23 71.9302 520.847C71.9302 518.478 72.3215 516.663 73.1041 515.402C73.8867 514.141 75.0187 513.511 76.5 513.511ZM73.4185 520.847C73.4185 522.537 73.5723 523.86 73.8797 524.816L78.5334 515.61C78.0442 514.958 77.3664 514.633 76.5 514.633C75.5357 514.633 74.7811 515.145 74.2361 516.171C73.691 517.182 73.4185 518.741 73.4185 520.847ZM76.5 527.061C77.4782 527.061 78.2399 526.555 78.7849 525.543C79.3299 524.518 79.6024 522.953 79.6024 520.847C79.6024 519.059 79.4277 517.674 79.0784 516.69L74.4247 525.98C74.9278 526.7 75.6196 527.061 76.5 527.061Z" fill="url(#paint41_linear_122_130)" fill-opacity="0.6"/>
<path d="M115.43 299.751C116.926 299.751 118.057 300.381 118.826 301.642C119.609 302.889 120 304.704 120 307.087C120 309.47 119.609 311.292 118.826 312.553C118.057 313.814 116.926 314.444 115.43 314.444C113.949 314.444 112.817 313.814 112.034 312.553C111.252 311.292 110.86 309.47 110.86 307.087C110.86 304.718 111.252 302.903 112.034 301.642C112.817 300.381 113.949 299.751 115.43 299.751ZM112.349 307.087C112.349 308.777 112.502 310.101 112.81 311.057L117.464 301.85C116.974 301.199 116.297 300.873 115.43 300.873C114.466 300.873 113.711 301.386 113.166 302.411C112.621 303.423 112.349 304.981 112.349 307.087ZM115.43 313.301C116.408 313.301 117.17 312.795 117.715 311.784C118.26 310.759 118.533 309.193 118.533 307.087C118.533 305.3 118.358 303.914 118.009 302.931L113.355 312.22C113.858 312.941 114.55 313.301 115.43 313.301Z" fill="url(#paint42_linear_122_130)" fill-opacity="0.6"/>
<path d="M116.688 336.886H119.769V337.987H111.783V336.886H115.346V325.206L111.95 327.222L111.363 326.287L115.556 323.71H116.688V336.886Z" fill="url(#paint43_linear_122_130)" fill-opacity="0.6"/>
<path d="M116.688 360.637H119.769V361.738H111.783V360.637H115.346V348.957L111.95 350.973L111.363 350.038L115.556 347.461H116.688V360.637Z" fill="url(#paint44_linear_122_130)" fill-opacity="0.6"/>
<path d="M115.43 371.004C116.926 371.004 118.057 371.635 118.826 372.895C119.609 374.142 120 375.957 120 378.34C120 380.723 119.609 382.545 118.826 383.806C118.057 385.067 116.926 385.697 115.43 385.697C113.949 385.697 112.817 385.067 112.034 383.806C111.252 382.545 110.86 380.723 110.86 378.34C110.86 375.971 111.252 374.156 112.034 372.895C112.817 371.635 113.949 371.004 115.43 371.004ZM112.349 378.34C112.349 380.031 112.502 381.354 112.81 382.31L117.464 373.103C116.974 372.452 116.297 372.126 115.43 372.126C114.466 372.126 113.711 372.639 113.166 373.664C112.621 374.676 112.349 376.234 112.349 378.34ZM115.43 384.554C116.408 384.554 117.17 384.049 117.715 383.037C118.26 382.012 118.533 380.446 118.533 378.34C118.533 376.553 118.358 375.168 118.009 374.184L113.355 383.474C113.858 384.194 114.55 384.554 115.43 384.554Z" fill="url(#paint45_linear_122_130)" fill-opacity="0.6"/>
<path d="M115.43 394.755C116.926 394.755 118.057 395.386 118.826 396.646C119.609 397.893 120 399.708 120 402.091C120 404.474 119.609 406.296 118.826 407.557C118.057 408.818 116.926 409.448 115.43 409.448C113.949 409.448 112.817 408.818 112.034 407.557C111.252 406.296 110.86 404.474 110.86 402.091C110.86 399.722 111.252 397.907 112.034 396.646C112.817 395.386 113.949 394.755 115.43 394.755ZM112.349 402.091C112.349 403.782 112.502 405.105 112.81 406.061L117.464 396.854C116.974 396.203 116.297 395.878 115.43 395.878C114.466 395.878 113.711 396.39 113.166 397.415C112.621 398.427 112.349 399.985 112.349 402.091ZM115.43 408.305C116.408 408.305 117.17 407.8 117.715 406.788C118.26 405.763 118.533 404.197 118.533 402.091C118.533 400.304 118.358 398.919 118.009 397.935L113.355 407.225C113.858 407.945 114.55 408.305 115.43 408.305Z" fill="url(#paint46_linear_122_130)" fill-opacity="0.6"/>
<g opacity="0.6">
<path d="M943.93 -24C945.356 -24 946.436 -23.395 947.17 -22.1851C947.916 -20.9885 948.29 -19.2468 948.29 -16.9599C948.29 -14.673 947.916 -12.9246 947.17 -11.7147C946.436 -10.5048 945.356 -9.8998 943.93 -9.8998C942.517 -9.8998 941.437 -10.5048 940.69 -11.7147C939.943 -12.9246 939.57 -14.673 939.57 -16.9599C939.57 -19.2335 939.943 -20.9752 940.69 -22.1851C941.437 -23.395 942.517 -24 943.93 -24ZM940.99 -16.9599C940.99 -15.3378 941.137 -14.068 941.43 -13.1506L945.87 -21.9857C945.403 -22.6106 944.756 -22.923 943.93 -22.923C943.01 -22.923 942.29 -22.4311 941.77 -21.4472C941.25 -20.4766 940.99 -18.9808 940.99 -16.9599ZM943.93 -10.9967C944.863 -10.9967 945.59 -11.482 946.11 -12.4526C946.63 -13.4365 946.89 -14.9389 946.89 -16.9599C946.89 -18.675 946.723 -20.0046 946.39 -20.9486L941.95 -12.0338C942.43 -11.3424 943.09 -10.9967 943.93 -10.9967Z" fill="url(#paint47_linear_122_130)"/>
<path d="M945.13 11.6365H948.07V12.6936H940.45V11.6365H943.85V0.428188L940.61 2.36273L940.05 1.46526L944.05 -1.00776H945.13V11.6365Z" fill="url(#paint48_linear_122_130)"/>
<path d="M943.93 21.5856C945.356 21.5856 946.436 22.1906 947.17 23.4005C947.916 24.5971 948.29 26.3389 948.29 28.6257C948.29 30.9126 947.916 32.661 947.17 33.8709C946.436 35.0808 945.356 35.6858 943.93 35.6858C942.517 35.6858 941.437 35.0808 940.69 33.8709C939.943 32.661 939.57 30.9126 939.57 28.6257C939.57 26.3522 939.943 24.6104 940.69 23.4005C941.437 22.1906 942.517 21.5856 943.93 21.5856ZM940.99 28.6257C940.99 30.2478 941.137 31.5176 941.43 32.435L945.87 23.5999C945.403 22.975 944.756 22.6626 943.93 22.6626C943.01 22.6626 942.29 23.1545 941.77 24.1384C941.25 25.109 940.99 26.6048 940.99 28.6257ZM943.93 34.5889C944.863 34.5889 945.59 34.1036 946.11 33.133C946.63 32.1491 946.89 30.6467 946.89 28.6257C946.89 26.9106 946.723 25.581 946.39 24.637L941.95 33.5518C942.43 34.2432 943.09 34.5889 943.93 34.5889Z" fill="url(#paint49_linear_122_130)"/>
<path d="M945.13 57.2221H948.07V58.2792H940.45V57.2221H943.85V46.0138L940.61 47.9483L940.05 47.0509L944.05 44.5778H945.13V57.2221Z" fill="url(#paint50_linear_122_130)"/>
<path d="M945.13 80.015H948.07V81.072H940.45V80.015H943.85V68.8066L940.61 70.7411L940.05 69.8437L944.05 67.3706H945.13V80.015Z" fill="url(#paint51_linear_122_130)"/>
<path d="M943.93 89.964C945.356 89.964 946.436 90.569 947.17 91.7789C947.916 92.9755 948.29 94.7173 948.29 97.0041C948.29 99.291 947.916 101.039 947.17 102.249C946.436 103.459 945.356 104.064 943.93 104.064C942.517 104.064 941.437 103.459 940.69 102.249C939.943 101.039 939.57 99.291 939.57 97.0041C939.57 94.7306 939.943 92.9888 940.69 91.7789C941.437 90.569 942.517 89.964 943.93 89.964ZM940.99 97.0041C940.99 98.6262 941.137 99.896 941.43 100.813L945.87 91.9783C945.403 91.3534 944.756 91.041 943.93 91.041C943.01 91.041 942.29 91.5329 941.77 92.5168C941.25 93.4874 940.99 94.9832 940.99 97.0041ZM943.93 102.967C944.863 102.967 945.59 102.482 946.11 101.511C946.63 100.528 946.89 99.0251 946.89 97.0041C946.89 95.289 946.723 93.9594 946.39 93.0154L941.95 101.93C942.43 102.622 943.09 102.967 943.93 102.967Z" fill="url(#paint52_linear_122_130)"/>
<path d="M945.13 125.601H948.07V126.658H940.45V125.601H943.85V114.392L940.61 116.327L940.05 115.429L944.05 112.956H945.13V125.601Z" fill="url(#paint53_linear_122_130)"/>
<path d="M943.93 135.55C945.356 135.55 946.436 136.155 947.17 137.365C947.916 138.561 948.29 140.303 948.29 142.59C948.29 144.877 947.916 146.625 947.17 147.835C946.436 149.045 945.356 149.65 943.93 149.65C942.517 149.65 941.437 149.045 940.69 147.835C939.943 146.625 939.57 144.877 939.57 142.59C939.57 140.316 939.943 138.574 940.69 137.365C941.437 136.155 942.517 135.55 943.93 135.55ZM940.99 142.59C940.99 144.212 941.137 145.482 941.43 146.399L945.87 137.564C945.403 136.939 944.756 136.627 943.93 136.627C943.01 136.627 942.29 137.119 941.77 138.102C941.25 139.073 940.99 140.569 940.99 142.59ZM943.93 148.553C944.863 148.553 945.59 148.068 946.11 147.097C946.63 146.113 946.89 144.611 946.89 142.59C946.89 140.875 946.723 139.545 946.39 138.601L941.95 147.516C942.43 148.207 943.09 148.553 943.93 148.553Z" fill="url(#paint54_linear_122_130)"/>
<path d="M943.93 158.342C945.356 158.342 946.436 158.947 947.17 160.157C947.916 161.354 948.29 163.096 948.29 165.383C948.29 167.669 947.916 169.418 947.17 170.628C946.436 171.838 945.356 172.443 943.93 172.443C942.517 172.443 941.437 171.838 940.69 170.628C939.943 169.418 939.57 167.669 939.57 165.383C939.57 163.109 939.943 161.367 940.69 160.157C941.437 158.947 942.517 158.342 943.93 158.342ZM940.99 165.383C940.99 167.005 941.137 168.274 941.43 169.192L945.87 160.357C945.403 159.732 944.756 159.419 943.93 159.419C943.01 159.419 942.29 159.911 941.77 160.895C941.25 161.866 940.99 163.362 940.99 165.383ZM943.93 171.346C944.863 171.346 945.59 170.86 946.11 169.89C946.63 168.906 946.89 167.404 946.89 165.383C946.89 163.667 946.723 162.338 946.39 161.394L941.95 170.309C942.43 171 943.09 171.346 943.93 171.346Z" fill="url(#paint55_linear_122_130)"/>
<path d="M945.13 193.979H948.07V195.036H940.45V193.979H943.85V182.771L940.61 184.705L940.05 183.808L944.05 181.335H945.13V193.979Z" fill="url(#paint56_linear_122_130)"/>
<path d="M943.93 203.928C945.356 203.928 946.436 204.533 947.17 205.743C947.916 206.94 948.29 208.681 948.29 210.968C948.29 213.255 947.916 215.003 947.17 216.213C946.436 217.423 945.356 218.028 943.93 218.028C942.517 218.028 941.437 217.423 940.69 216.213C939.943 215.003 939.57 213.255 939.57 210.968C939.57 208.695 939.943 206.953 940.69 205.743C941.437 204.533 942.517 203.928 943.93 203.928ZM940.99 210.968C940.99 212.59 941.137 213.86 941.43 214.777L945.87 205.942C945.403 205.317 944.756 205.005 943.93 205.005C943.01 205.005 942.29 205.497 941.77 206.481C941.25 207.451 940.99 208.947 940.99 210.968ZM943.93 216.931C944.863 216.931 945.59 216.446 946.11 215.475C946.63 214.492 946.89 212.989 946.89 210.968C946.89 209.253 946.723 207.923 946.39 206.979L941.95 215.894C942.43 216.586 943.09 216.931 943.93 216.931Z" fill="url(#paint57_linear_122_130)"/>
<path d="M945.13 239.565H948.07V240.622H940.45V239.565H943.85V228.356L940.61 230.291L940.05 229.393L944.05 226.92H945.13V239.565Z" fill="url(#paint58_linear_122_130)"/>
<path d="M945.13 262.357H948.07V263.414H940.45V262.357H943.85V251.149L940.61 253.084L940.05 252.186L944.05 249.713H945.13V262.357Z" fill="url(#paint59_linear_122_130)"/>
<path d="M981.07 21.5856C982.497 21.5856 983.577 22.1906 984.31 23.4005C985.057 24.5971 985.43 26.3389 985.43 28.6257C985.43 30.9126 985.057 32.661 984.31 33.8709C983.577 35.0808 982.497 35.6858 981.07 35.6858C979.657 35.6858 978.577 35.0808 977.83 33.8709C977.084 32.661 976.71 30.9126 976.71 28.6257C976.71 26.3522 977.084 24.6104 977.83 23.4005C978.577 22.1906 979.657 21.5856 981.07 21.5856ZM978.13 28.6257C978.13 30.2478 978.277 31.5176 978.57 32.435L983.01 23.5999C982.543 22.975 981.897 22.6626 981.07 22.6626C980.15 22.6626 979.43 23.1545 978.91 24.1384C978.39 25.109 978.13 26.6048 978.13 28.6257ZM981.07 34.5889C982.003 34.5889 982.73 34.1036 983.25 33.133C983.77 32.1491 984.03 30.6467 984.03 28.6257C984.03 26.9106 983.863 25.581 983.53 24.637L979.09 33.5518C979.57 34.2432 980.23 34.5889 981.07 34.5889Z" fill="url(#paint60_linear_122_130)"/>
<path d="M982.27 57.2221H985.21V58.2792H977.59V57.2221H980.99V46.0138L977.75 47.9483L977.19 47.0509L981.19 44.5778H982.27V57.2221Z" fill="url(#paint61_linear_122_130)"/>
<path d="M981.07 67.1712C982.497 67.1712 983.577 67.7762 984.31 68.9861C985.057 70.1827 985.43 71.9245 985.43 74.2113C985.43 76.4982 985.057 78.2466 984.31 79.4565C983.577 80.6664 982.497 81.2714 981.07 81.2714C979.657 81.2714 978.577 80.6664 977.83 79.4565C977.084 78.2466 976.71 76.4982 976.71 74.2113C976.71 71.9378 977.084 70.196 977.83 68.9861C978.577 67.7762 979.657 67.1712 981.07 67.1712ZM978.13 74.2113C978.13 75.8334 978.277 77.1032 978.57 78.0206L983.01 69.1855C982.543 68.5606 981.897 68.2482 981.07 68.2482C980.15 68.2482 979.43 68.7401 978.91 69.724C978.39 70.6946 978.13 72.1904 978.13 74.2113ZM981.07 80.1745C982.003 80.1745 982.73 79.6892 983.25 78.7186C983.77 77.7347 984.03 76.2323 984.03 74.2113C984.03 72.4962 983.863 71.1666 983.53 70.2226L979.09 79.1374C979.57 79.8288 980.23 80.1745 981.07 80.1745Z" fill="url(#paint62_linear_122_130)"/>
<path d="M981.07 89.964C982.497 89.964 983.577 90.569 984.31 91.7789C985.057 92.9755 985.43 94.7173 985.43 97.0041C985.43 99.291 985.057 101.039 984.31 102.249C983.577 103.459 982.497 104.064 981.07 104.064C979.657 104.064 978.577 103.459 977.83 102.249C977.084 101.039 976.71 99.291 976.71 97.0041C976.71 94.7306 977.084 92.9888 977.83 91.7789C978.577 90.569 979.657 89.964 981.07 89.964ZM978.13 97.0041C978.13 98.6262 978.277 99.896 978.57 100.813L983.01 91.9783C982.543 91.3534 981.897 91.041 981.07 91.041C980.15 91.041 979.43 91.5329 978.91 92.5168C978.39 93.4874 978.13 94.9832 978.13 97.0041ZM981.07 102.967C982.003 102.967 982.73 102.482 983.25 101.511C983.77 100.528 984.03 99.0251 984.03 97.0041C984.03 95.289 983.863 93.9594 983.53 93.0154L979.09 101.93C979.57 102.622 980.23 102.967 981.07 102.967Z" fill="url(#paint63_linear_122_130)"/>
<path d="M982.27 125.601H985.21V126.658H977.59V125.601H980.99V114.392L977.75 116.327L977.19 115.429L981.19 112.956H982.27V125.601Z" fill="url(#paint64_linear_122_130)"/>
<path d="M981.07 135.55C982.497 135.55 983.577 136.155 984.31 137.365C985.057 138.561 985.43 140.303 985.43 142.59C985.43 144.877 985.057 146.625 984.31 147.835C983.577 149.045 982.497 149.65 981.07 149.65C979.657 149.65 978.577 149.045 977.83 147.835C977.084 146.625 976.71 144.877 976.71 142.59C976.71 140.316 977.084 138.574 977.83 137.365C978.577 136.155 979.657 135.55 981.07 135.55ZM978.13 142.59C978.13 144.212 978.277 145.482 978.57 146.399L983.01 137.564C982.543 136.939 981.897 136.627 981.07 136.627C980.15 136.627 979.43 137.119 978.91 138.102C978.39 139.073 978.13 140.569 978.13 142.59ZM981.07 148.553C982.003 148.553 982.73 148.068 983.25 147.097C983.77 146.113 984.03 144.611 984.03 142.59C984.03 140.875 983.863 139.545 983.53 138.601L979.09 147.516C979.57 148.207 980.23 148.553 981.07 148.553Z" fill="url(#paint65_linear_122_130)"/>
<path d="M982.27 171.186H985.21V172.243H977.59V171.186H980.99V159.978L977.75 161.912L977.19 161.015L981.19 158.542H982.27V171.186Z" fill="url(#paint66_linear_122_130)"/>
<path d="M981.07 181.135C982.497 181.135 983.577 181.74 984.31 182.95C985.057 184.147 985.43 185.888 985.43 188.175C985.43 190.462 985.057 192.211 984.31 193.421C983.577 194.63 982.497 195.235 981.07 195.235C979.657 195.235 978.577 194.63 977.83 193.421C977.084 192.211 976.71 190.462 976.71 188.175C976.71 185.902 977.084 184.16 977.83 182.95C978.577 181.74 979.657 181.135 981.07 181.135ZM978.13 188.175C978.13 189.797 978.277 191.067 978.57 191.985L983.01 183.15C982.543 182.525 981.897 182.212 981.07 182.212C980.15 182.212 979.43 182.704 978.91 183.688C978.39 184.659 978.13 186.154 978.13 188.175ZM981.07 194.139C982.003 194.139 982.73 193.653 983.25 192.683C983.77 191.699 984.03 190.196 984.03 188.175C984.03 186.46 983.863 185.131 983.53 184.187L979.09 193.101C979.57 193.793 980.23 194.139 981.07 194.139Z" fill="url(#paint67_linear_122_130)"/>
<path d="M981.07 203.928C982.497 203.928 983.577 204.533 984.31 205.743C985.057 206.94 985.43 208.681 985.43 210.968C985.43 213.255 985.057 215.003 984.31 216.213C983.577 217.423 982.497 218.028 981.07 218.028C979.657 218.028 978.577 217.423 977.83 216.213C977.084 215.003 976.71 213.255 976.71 210.968C976.71 208.695 977.084 206.953 977.83 205.743C978.577 204.533 979.657 203.928 981.07 203.928ZM978.13 210.968C978.13 212.59 978.277 213.86 978.57 214.777L983.01 205.942C982.543 205.317 981.897 205.005 981.07 205.005C980.15 205.005 979.43 205.497 978.91 206.481C978.39 207.451 978.13 208.947 978.13 210.968ZM981.07 216.931C982.003 216.931 982.73 216.446 983.25 215.475C983.77 214.492 984.03 212.989 984.03 210.968C984.03 209.253 983.863 207.923 983.53 206.979L979.09 215.894C979.57 216.586 980.23 216.931 981.07 216.931Z" fill="url(#paint68_linear_122_130)"/>
<path d="M982.27 239.565H985.21V240.622H977.59V239.565H980.99V228.356L977.75 230.291L977.19 229.393L981.19 226.92H982.27V239.565Z" fill="url(#paint69_linear_122_130)"/>
<path d="M981.07 249.514C982.497 249.514 983.577 250.119 984.31 251.329C985.057 252.525 985.43 254.267 985.43 256.554C985.43 258.841 985.057 260.589 984.31 261.799C983.577 263.009 982.497 263.614 981.07 263.614C979.657 263.614 978.577 263.009 977.83 261.799C977.084 260.589 976.71 258.841 976.71 256.554C976.71 254.28 977.084 252.538 977.83 251.329C978.577 250.119 979.657 249.514 981.07 249.514ZM978.13 256.554C978.13 258.176 978.277 259.446 978.57 260.363L983.01 251.528C982.543 250.903 981.897 250.591 981.07 250.591C980.15 250.591 979.43 251.083 978.91 252.066C978.39 253.037 978.13 254.533 978.13 256.554ZM981.07 262.517C982.003 262.517 982.73 262.032 983.25 261.061C983.77 260.077 984.03 258.575 984.03 256.554C984.03 254.839 983.863 253.509 983.53 252.565L979.09 261.48C979.57 262.171 980.23 262.517 981.07 262.517Z" fill="url(#paint70_linear_122_130)"/>
<path d="M982.27 285.15H985.21V286.207H977.59V285.15H980.99V273.942L977.75 275.876L977.19 274.979L981.19 272.506H982.27V285.15Z" fill="url(#paint71_linear_122_130)"/>
<path d="M982.27 307.943H985.21V309H977.59V307.943H980.99V296.735L977.75 298.669L977.19 297.772L981.19 295.299H982.27V307.943Z" fill="url(#paint72_linear_122_130)"/>
<path d="M925.36 44.3784C926.786 44.3784 927.866 44.9834 928.599 46.1933C929.346 47.3899 929.719 49.1317 929.719 51.4185C929.719 53.7054 929.346 55.4538 928.599 56.6637C927.866 57.8736 926.786 58.4786 925.36 58.4786C923.946 58.4786 922.867 57.8736 922.12 56.6637C921.373 55.4538 921 53.7054 921 51.4185C921 49.145 921.373 47.4032 922.12 46.1933C922.867 44.9834 923.946 44.3784 925.36 44.3784ZM922.42 51.4185C922.42 53.0406 922.567 54.3104 922.86 55.2278L927.3 46.3927C926.833 45.7678 926.186 45.4554 925.36 45.4554C924.44 45.4554 923.72 45.9473 923.2 46.9312C922.68 47.9018 922.42 49.3976 922.42 51.4185ZM925.36 57.3817C926.293 57.3817 927.02 56.8964 927.54 55.9258C928.06 54.9419 928.319 53.4395 928.319 51.4185C928.319 49.7034 928.153 48.3738 927.82 47.4298L923.38 56.3446C923.86 57.036 924.52 57.3817 925.36 57.3817Z" fill="url(#paint73_linear_122_130)"/>
<path d="M925.36 67.1712C926.786 67.1712 927.866 67.7762 928.599 68.9861C929.346 70.1827 929.719 71.9245 929.719 74.2113C929.719 76.4982 929.346 78.2466 928.599 79.4565C927.866 80.6664 926.786 81.2714 925.36 81.2714C923.946 81.2714 922.867 80.6664 922.12 79.4565C921.373 78.2466 921 76.4982 921 74.2113C921 71.9378 921.373 70.196 922.12 68.9861C922.867 67.7762 923.946 67.1712 925.36 67.1712ZM922.42 74.2113C922.42 75.8334 922.567 77.1032 922.86 78.0206L927.3 69.1855C926.833 68.5606 926.186 68.2482 925.36 68.2482C924.44 68.2482 923.72 68.7401 923.2 69.724C922.68 70.6946 922.42 72.1904 922.42 74.2113ZM925.36 80.1745C926.293 80.1745 927.02 79.6892 927.54 78.7186C928.06 77.7347 928.319 76.2323 928.319 74.2113C928.319 72.4962 928.153 71.1666 927.82 70.2226L923.38 79.1374C923.86 79.8288 924.52 80.1745 925.36 80.1745Z" fill="url(#paint74_linear_122_130)"/>
<path d="M926.56 102.808H929.499V103.865H921.88V102.808H925.28V91.5994L922.04 93.5339L921.48 92.6365L925.48 90.1635H926.56V102.808Z" fill="url(#paint75_linear_122_130)"/>
<path d="M925.36 112.757C926.786 112.757 927.866 113.362 928.599 114.572C929.346 115.768 929.719 117.51 929.719 119.797C929.719 122.084 929.346 123.832 928.599 125.042C927.866 126.252 926.786 126.857 925.36 126.857C923.946 126.857 922.867 126.252 922.12 125.042C921.373 123.832 921 122.084 921 119.797C921 117.523 921.373 115.782 922.12 114.572C922.867 113.362 923.946 112.757 925.36 112.757ZM922.42 119.797C922.42 121.419 922.567 122.689 922.86 123.606L927.3 114.771C926.833 114.146 926.186 113.834 925.36 113.834C924.44 113.834 923.72 114.326 923.2 115.31C922.68 116.28 922.42 117.776 922.42 119.797ZM925.36 125.76C926.293 125.76 927.02 125.275 927.54 124.304C928.06 123.32 928.319 121.818 928.319 119.797C928.319 118.082 928.153 116.752 927.82 115.808L923.38 124.723C923.86 125.414 924.52 125.76 925.36 125.76Z" fill="url(#paint76_linear_122_130)"/>
<path d="M926.56 148.393H929.499V149.45H921.88V148.393H925.28V137.185L922.04 139.12L921.48 138.222L925.48 135.749H926.56V148.393Z" fill="url(#paint77_linear_122_130)"/>
<path d="M926.56 171.186H929.499V172.243H921.88V171.186H925.28V159.978L922.04 161.912L921.48 161.015L925.48 158.542H926.56V171.186Z" fill="url(#paint78_linear_122_130)"/>
<path d="M963.7 11.6365H966.64V12.6936H959.02V11.6365H962.42V0.428188L959.18 2.36273L958.62 1.46526L962.62 -1.00776H963.7V11.6365Z" fill="url(#paint79_linear_122_130)"/>
<path d="M962.5 21.5856C963.927 21.5856 965.006 22.1906 965.74 23.4005C966.486 24.5971 966.86 26.3389 966.86 28.6257C966.86 30.9126 966.486 32.661 965.74 33.8709C965.006 35.0808 963.927 35.6858 962.5 35.6858C961.087 35.6858 960.007 35.0808 959.26 33.8709C958.514 32.661 958.14 30.9126 958.14 28.6257C958.14 26.3522 958.514 24.6104 959.26 23.4005C960.007 22.1906 961.087 21.5856 962.5 21.5856ZM959.56 28.6257C959.56 30.2478 959.707 31.5176 960 32.435L964.44 23.5999C963.973 22.975 963.327 22.6626 962.5 22.6626C961.58 22.6626 960.86 23.1545 960.34 24.1384C959.82 25.109 959.56 26.6048 959.56 28.6257ZM962.5 34.5889C963.433 34.5889 964.16 34.1036 964.68 33.133C965.2 32.1491 965.46 30.6467 965.46 28.6257C965.46 26.9106 965.293 25.581 964.96 24.637L960.52 33.5518C961 34.2432 961.66 34.5889 962.5 34.5889Z" fill="url(#paint80_linear_122_130)"/>
<path d="M963.7 57.2221H966.64V58.2792H959.02V57.2221H962.42V46.0138L959.18 47.9483L958.62 47.0509L962.62 44.5778H963.7V57.2221Z" fill="url(#paint81_linear_122_130)"/>
<path d="M963.7 80.015H966.64V81.072H959.02V80.015H962.42V68.8066L959.18 70.7411L958.62 69.8437L962.62 67.3706H963.7V80.015Z" fill="url(#paint82_linear_122_130)"/>
<path d="M962.5 89.964C963.927 89.964 965.006 90.569 965.74 91.7789C966.486 92.9755 966.86 94.7173 966.86 97.0041C966.86 99.291 966.486 101.039 965.74 102.249C965.006 103.459 963.927 104.064 962.5 104.064C961.087 104.064 960.007 103.459 959.26 102.249C958.514 101.039 958.14 99.291 958.14 97.0041C958.14 94.7306 958.514 92.9888 959.26 91.7789C960.007 90.569 961.087 89.964 962.5 89.964ZM959.56 97.0041C959.56 98.6262 959.707 99.896 960 100.813L964.44 91.9783C963.973 91.3534 963.327 91.041 962.5 91.041C961.58 91.041 960.86 91.5329 960.34 92.5168C959.82 93.4874 959.56 94.9832 959.56 97.0041ZM962.5 102.967C963.433 102.967 964.16 102.482 964.68 101.511C965.2 100.528 965.46 99.0251 965.46 97.0041C965.46 95.289 965.293 93.9594 964.96 93.0154L960.52 101.93C961 102.622 961.66 102.967 962.5 102.967Z" fill="url(#paint83_linear_122_130)"/>
<path d="M963.7 125.601H966.64V126.658H959.02V125.601H962.42V114.392L959.18 116.327L958.62 115.429L962.62 112.956H963.7V125.601Z" fill="url(#paint84_linear_122_130)"/>
<path d="M963.7 148.393H966.64V149.45H959.02V148.393H962.42V137.185L959.18 139.12L958.62 138.222L962.62 135.749H963.7V148.393Z" fill="url(#paint85_linear_122_130)"/>
<path d="M962.5 158.342C963.927 158.342 965.006 158.947 965.74 160.157C966.486 161.354 966.86 163.096 966.86 165.383C966.86 167.669 966.486 169.418 965.74 170.628C965.006 171.838 963.927 172.443 962.5 172.443C961.087 172.443 960.007 171.838 959.26 170.628C958.514 169.418 958.14 167.669 958.14 165.383C958.14 163.109 958.514 161.367 959.26 160.157C960.007 158.947 961.087 158.342 962.5 158.342ZM959.56 165.383C959.56 167.005 959.707 168.274 960 169.192L964.44 160.357C963.973 159.732 963.327 159.419 962.5 159.419C961.58 159.419 960.86 159.911 960.34 160.895C959.82 161.866 959.56 163.362 959.56 165.383ZM962.5 171.346C963.433 171.346 964.16 170.86 964.68 169.89C965.2 168.906 965.46 167.404 965.46 165.383C965.46 163.667 965.293 162.338 964.96 161.394L960.52 170.309C961 171 961.66 171.346 962.5 171.346Z" fill="url(#paint86_linear_122_130)"/>
<path d="M963.7 193.979H966.64V195.036H959.02V193.979H962.42V182.771L959.18 184.705L958.62 183.808L962.62 181.335H963.7V193.979Z" fill="url(#paint87_linear_122_130)"/>
<path d="M962.5 203.928C963.927 203.928 965.006 204.533 965.74 205.743C966.486 206.94 966.86 208.681 966.86 210.968C966.86 213.255 966.486 215.003 965.74 216.213C965.006 217.423 963.927 218.028 962.5 218.028C961.087 218.028 960.007 217.423 959.26 216.213C958.514 215.003 958.14 213.255 958.14 210.968C958.14 208.695 958.514 206.953 959.26 205.743C960.007 204.533 961.087 203.928 962.5 203.928ZM959.56 210.968C959.56 212.59 959.707 213.86 960 214.777L964.44 205.942C963.973 205.317 963.327 205.005 962.5 205.005C961.58 205.005 960.86 205.497 960.34 206.481C959.82 207.451 959.56 208.947 959.56 210.968ZM962.5 216.931C963.433 216.931 964.16 216.446 964.68 215.475C965.2 214.492 965.46 212.989 965.46 210.968C965.46 209.253 965.293 207.923 964.96 206.979L960.52 215.894C961 216.586 961.66 216.931 962.5 216.931Z" fill="url(#paint88_linear_122_130)"/>
<path d="M999.64 -1.2072C1001.07 -1.2072 1002.15 -0.602238 1002.88 0.60768C1003.63 1.8043 1004 3.54605 1004 5.83293C1004 8.11981 1003.63 9.86821 1002.88 11.0781C1002.15 12.288 1001.07 12.893 999.64 12.893C998.227 12.893 997.147 12.288 996.401 11.0781C995.654 9.86821 995.281 8.11981 995.281 5.83293C995.281 3.55935 995.654 1.8176 996.401 0.60768C997.147 -0.602238 998.227 -1.2072 999.64 -1.2072ZM996.7 5.83293C996.7 7.45502 996.847 8.72477 997.14 9.64218L1001.58 0.807116C1001.11 0.182213 1000.47 -0.130236 999.64 -0.130236C998.72 -0.130236 998 0.361706 997.48 1.3456C996.96 2.31619 996.7 3.81197 996.7 5.83293ZM999.64 11.7961C1000.57 11.7961 1001.3 11.3108 1001.82 10.3402C1002.34 9.35632 1002.6 7.85389 1002.6 5.83293C1002.6 4.11777 1002.43 2.78819 1002.1 1.84419L997.66 10.759C998.14 11.4504 998.8 11.7961 999.64 11.7961Z" fill="url(#paint89_linear_122_130)"/>
<path d="M1000.84 34.4293H1003.78V35.4864H996.161V34.4293H999.56V23.221L996.321 25.1555L995.761 24.2581L999.76 21.785H1000.84V34.4293Z" fill="url(#paint90_linear_122_130)"/>
<path d="M1000.84 57.2221H1003.78V58.2792H996.161V57.2221H999.56V46.0138L996.321 47.9483L995.761 47.0509L999.76 44.5778H1000.84V57.2221Z" fill="url(#paint91_linear_122_130)"/>
<path d="M999.64 67.1712C1001.07 67.1712 1002.15 67.7762 1002.88 68.9861C1003.63 70.1827 1004 71.9245 1004 74.2113C1004 76.4982 1003.63 78.2466 1002.88 79.4565C1002.15 80.6664 1001.07 81.2714 999.64 81.2714C998.227 81.2714 997.147 80.6664 996.401 79.4565C995.654 78.2466 995.281 76.4982 995.281 74.2113C995.281 71.9378 995.654 70.196 996.401 68.9861C997.147 67.7762 998.227 67.1712 999.64 67.1712ZM996.7 74.2113C996.7 75.8334 996.847 77.1032 997.14 78.0206L1001.58 69.1855C1001.11 68.5606 1000.47 68.2482 999.64 68.2482C998.72 68.2482 998 68.7401 997.48 69.724C996.96 70.6946 996.7 72.1904 996.7 74.2113ZM999.64 80.1745C1000.57 80.1745 1001.3 79.6892 1001.82 78.7186C1002.34 77.7347 1002.6 76.2323 1002.6 74.2113C1002.6 72.4962 1002.43 71.1666 1002.1 70.2226L997.66 79.1374C998.14 79.8288 998.8 80.1745 999.64 80.1745Z" fill="url(#paint92_linear_122_130)"/>
<path d="M999.64 89.964C1001.07 89.964 1002.15 90.569 1002.88 91.7789C1003.63 92.9755 1004 94.7173 1004 97.0041C1004 99.291 1003.63 101.039 1002.88 102.249C1002.15 103.459 1001.07 104.064 999.64 104.064C998.227 104.064 997.147 103.459 996.401 102.249C995.654 101.039 995.281 99.291 995.281 97.0041C995.281 94.7306 995.654 92.9888 996.401 91.7789C997.147 90.569 998.227 89.964 999.64 89.964ZM996.7 97.0041C996.7 98.6262 996.847 99.896 997.14 100.813L1001.58 91.9783C1001.11 91.3534 1000.47 91.041 999.64 91.041C998.72 91.041 998 91.5329 997.48 92.5168C996.96 93.4874 996.7 94.9832 996.7 97.0041ZM999.64 102.967C1000.57 102.967 1001.3 102.482 1001.82 101.511C1002.34 100.528 1002.6 99.0251 1002.6 97.0041C1002.6 95.289 1002.43 93.9594 1002.1 93.0154L997.66 101.93C998.14 102.622 998.8 102.967 999.64 102.967Z" fill="url(#paint93_linear_122_130)"/>
</g>
</g>
<defs>
<filter id="filter0_f_122_130" x="-534.19" y="-710.19" width="2141.38" height="1500.38" filterUnits="userSpaceOnUse" color-interpolation-filters="sRGB">
<feFlood flood-opacity="0" result="BackgroundImageFix"/>
<feBlend mode="normal" in="SourceGraphic" in2="BackgroundImageFix" result="shape"/>
<feGaussianBlur stdDeviation="200.095" result="effect1_foregroundBlur_122_130"/>
</filter>
<linearGradient id="paint0_linear_122_130" x1="76.5" y1="276" x2="76.5" y2="587.381" gradientUnits="userSpaceOnUse">
<stop stop-color="#F7DD43"/>
<stop offset="1" stop-color="#F7DD43" stop-opacity="0"/>
</linearGradient>
<linearGradient id="paint1_linear_122_130" x1="76.5" y1="276" x2="76.5" y2="587.381" gradientUnits="userSpaceOnUse">
<stop stop-color="#F7DD43"/>
<stop offset="1" stop-color="#F7DD43" stop-opacity="0"/>
</linearGradient>
<linearGradient id="paint2_linear_122_130" x1="76.5" y1="276" x2="76.5" y2="587.381" gradientUnits="userSpaceOnUse">
<stop stop-color="#F7DD43"/>
<stop offset="1" stop-color="#F7DD43" stop-opacity="0"/>
</linearGradient>
<linearGradient id="paint3_linear_122_130" x1="76.5" y1="276" x2="76.5" y2="587.381" gradientUnits="userSpaceOnUse">
<stop stop-color="#F7DD43"/>
<stop offset="1" stop-color="#F7DD43" stop-opacity="0"/>
</linearGradient>
<linearGradient id="paint4_linear_122_130" x1="76.5" y1="276" x2="76.5" y2="587.381" gradientUnits="userSpaceOnUse">
<stop stop-color="#F7DD43"/>
<stop offset="1" stop-color="#F7DD43" stop-opacity="0"/>
</linearGradient>
<linearGradient id="paint5_linear_122_130" x1="76.5" y1="276" x2="76.5" y2="587.381" gradientUnits="userSpaceOnUse">
<stop stop-color="#F7DD43"/>
<stop offset="1" stop-color="#F7DD43" stop-opacity="0"/>
</linearGradient>
<linearGradient id="paint6_linear_122_130" x1="76.5" y1="276" x2="76.5" y2="587.381" gradientUnits="userSpaceOnUse">
<stop stop-color="#F7DD43"/>
<stop offset="1" stop-color="#F7DD43" stop-opacity="0"/>
</linearGradient>
<linearGradient id="paint7_linear_122_130" x1="76.5" y1="276" x2="76.5" y2="587.381" gradientUnits="userSpaceOnUse">
<stop stop-color="#F7DD43"/>
<stop offset="1" stop-color="#F7DD43" stop-opacity="0"/>
</linearGradient>
<linearGradient id="paint8_linear_122_130" x1="76.5" y1="276" x2="76.5" y2="587.381" gradientUnits="userSpaceOnUse">
<stop stop-color="#F7DD43"/>
<stop offset="1" stop-color="#F7DD43" stop-opacity="0"/>
</linearGradient>
<linearGradient id="paint9_linear_122_130" x1="76.5" y1="276" x2="76.5" y2="587.381" gradientUnits="userSpaceOnUse">
<stop stop-color="#F7DD43"/>
<stop offset="1" stop-color="#F7DD43" stop-opacity="0"/>
</linearGradient>
<linearGradient id="paint10_linear_122_130" x1="76.5" y1="276" x2="76.5" y2="587.381" gradientUnits="userSpaceOnUse">
<stop stop-color="#F7DD43"/>
<stop offset="1" stop-color="#F7DD43" stop-opacity="0"/>
</linearGradient>
<linearGradient id="paint11_linear_122_130" x1="76.5" y1="276" x2="76.5" y2="587.381" gradientUnits="userSpaceOnUse">
<stop stop-color="#F7DD43"/>
<stop offset="1" stop-color="#F7DD43" stop-opacity="0"/>
</linearGradient>
<linearGradient id="paint12_linear_122_130" x1="76.5" y1="276" x2="76.5" y2="587.381" gradientUnits="userSpaceOnUse">
<stop stop-color="#F7DD43"/>
<stop offset="1" stop-color="#F7DD43" stop-opacity="0"/>
</linearGradient>
<linearGradient id="paint13_linear_122_130" x1="76.5" y1="276" x2="76.5" y2="587.381" gradientUnits="userSpaceOnUse">
<stop stop-color="#F7DD43"/>
<stop offset="1" stop-color="#F7DD43" stop-opacity="0"/>
</linearGradient>
<linearGradient id="paint14_linear_122_130" x1="76.5" y1="276" x2="76.5" y2="587.381" gradientUnits="userSpaceOnUse">
<stop stop-color="#F7DD43"/>
<stop offset="1" stop-color="#F7DD43" stop-opacity="0"/>
</linearGradient>
<linearGradient id="paint15_linear_122_130" x1="76.5" y1="276" x2="76.5" y2="587.381" gradientUnits="userSpaceOnUse">
<stop stop-color="#F7DD43"/>
<stop offset="1" stop-color="#F7DD43" stop-opacity="0"/>
</linearGradient>
<linearGradient id="paint16_linear_122_130" x1="76.5" y1="276" x2="76.5" y2="587.381" gradientUnits="userSpaceOnUse">
<stop stop-color="#F7DD43"/>
<stop offset="1" stop-color="#F7DD43" stop-opacity="0"/>
</linearGradient>
<linearGradient id="paint17_linear_122_130" x1="76.5" y1="276" x2="76.5" y2="587.381" gradientUnits="userSpaceOnUse">
<stop stop-color="#F7DD43"/>
<stop offset="1" stop-color="#F7DD43" stop-opacity="0"/>
</linearGradient>
<linearGradient id="paint18_linear_122_130" x1="76.5" y1="276" x2="76.5" y2="587.381" gradientUnits="userSpaceOnUse">
<stop stop-color="#F7DD43"/>
<stop offset="1" stop-color="#F7DD43" stop-opacity="0"/>
</linearGradient>
<linearGradient id="paint19_linear_122_130" x1="76.5" y1="276" x2="76.5" y2="587.381" gradientUnits="userSpaceOnUse">
<stop stop-color="#F7DD43"/>
<stop offset="1" stop-color="#F7DD43" stop-opacity="0"/>
</linearGradient>
<linearGradient id="paint20_linear_122_130" x1="76.5" y1="276" x2="76.5" y2="587.381" gradientUnits="userSpaceOnUse">
<stop stop-color="#F7DD43"/>
<stop offset="1" stop-color="#F7DD43" stop-opacity="0"/>
</linearGradient>
<linearGradient id="paint21_linear_122_130" x1="76.5" y1="276" x2="76.5" y2="587.381" gradientUnits="userSpaceOnUse">
<stop stop-color="#F7DD43"/>
<stop offset="1" stop-color="#F7DD43" stop-opacity="0"/>
</linearGradient>
<linearGradient id="paint22_linear_122_130" x1="76.5" y1="276" x2="76.5" y2="587.381" gradientUnits="userSpaceOnUse">
<stop stop-color="#F7DD43"/>
<stop offset="1" stop-color="#F7DD43" stop-opacity="0"/>
</linearGradient>
<linearGradient id="paint23_linear_122_130" x1="76.5" y1="276" x2="76.5" y2="587.381" gradientUnits="userSpaceOnUse">
<stop stop-color="#F7DD43"/>
<stop offset="1" stop-color="#F7DD43" stop-opacity="0"/>
</linearGradient>
<linearGradient id="paint24_linear_122_130" x1="76.5" y1="276" x2="76.5" y2="587.381" gradientUnits="userSpaceOnUse">
<stop stop-color="#F7DD43"/>
<stop offset="1" stop-color="#F7DD43" stop-opacity="0"/>
</linearGradient>
<linearGradient id="paint25_linear_122_130" x1="76.5" y1="276" x2="76.5" y2="587.381" gradientUnits="userSpaceOnUse">
<stop stop-color="#F7DD43"/>
<stop offset="1" stop-color="#F7DD43" stop-opacity="0"/>
</linearGradient>
<linearGradient id="paint26_linear_122_130" x1="76.5" y1="276" x2="76.5" y2="587.381" gradientUnits="userSpaceOnUse">
<stop stop-color="#F7DD43"/>
<stop offset="1" stop-color="#F7DD43" stop-opacity="0"/>
</linearGradient>
<linearGradient id="paint27_linear_122_130" x1="76.5" y1="276" x2="76.5" y2="587.381" gradientUnits="userSpaceOnUse">
<stop stop-color="#F7DD43"/>
<stop offset="1" stop-color="#F7DD43" stop-opacity="0"/>
</linearGradient>
<linearGradient id="paint28_linear_122_130" x1="76.5" y1="276" x2="76.5" y2="587.381" gradientUnits="userSpaceOnUse">
<stop stop-color="#F7DD43"/>
<stop offset="1" stop-color="#F7DD43" stop-opacity="0"/>
</linearGradient>
<linearGradient id="paint29_linear_122_130" x1="76.5" y1="276" x2="76.5" y2="587.381" gradientUnits="userSpaceOnUse">
<stop stop-color="#F7DD43"/>
<stop offset="1" stop-color="#F7DD43" stop-opacity="0"/>
</linearGradient>
<linearGradient id="paint30_linear_122_130" x1="76.5" y1="276" x2="76.5" y2="587.381" gradientUnits="userSpaceOnUse">
<stop stop-color="#F7DD43"/>
<stop offset="1" stop-color="#F7DD43" stop-opacity="0"/>
</linearGradient>
<linearGradient id="paint31_linear_122_130" x1="76.5" y1="276" x2="76.5" y2="587.381" gradientUnits="userSpaceOnUse">
<stop stop-color="#F7DD43"/>
<stop offset="1" stop-color="#F7DD43" stop-opacity="0"/>
</linearGradient>
<linearGradient id="paint32_linear_122_130" x1="76.5" y1="276" x2="76.5" y2="587.381" gradientUnits="userSpaceOnUse">
<stop stop-color="#F7DD43"/>
<stop offset="1" stop-color="#F7DD43" stop-opacity="0"/>
</linearGradient>
<linearGradient id="paint33_linear_122_130" x1="76.5" y1="276" x2="76.5" y2="587.381" gradientUnits="userSpaceOnUse">
<stop stop-color="#F7DD43"/>
<stop offset="1" stop-color="#F7DD43" stop-opacity="0"/>
</linearGradient>
<linearGradient id="paint34_linear_122_130" x1="76.5" y1="276" x2="76.5" y2="587.381" gradientUnits="userSpaceOnUse">
<stop stop-color="#F7DD43"/>
<stop offset="1" stop-color="#F7DD43" stop-opacity="0"/>
</linearGradient>
<linearGradient id="paint35_linear_122_130" x1="76.5" y1="276" x2="76.5" y2="587.381" gradientUnits="userSpaceOnUse">
<stop stop-color="#F7DD43"/>
<stop offset="1" stop-color="#F7DD43" stop-opacity="0"/>
</linearGradient>
<linearGradient id="paint36_linear_122_130" x1="76.5" y1="276" x2="76.5" y2="587.381" gradientUnits="userSpaceOnUse">
<stop stop-color="#F7DD43"/>
<stop offset="1" stop-color="#F7DD43" stop-opacity="0"/>
</linearGradient>
<linearGradient id="paint37_linear_122_130" x1="76.5" y1="276" x2="76.5" y2="587.381" gradientUnits="userSpaceOnUse">
<stop stop-color="#F7DD43"/>
<stop offset="1" stop-color="#F7DD43" stop-opacity="0"/>
</linearGradient>
<linearGradient id="paint38_linear_122_130" x1="76.5" y1="276" x2="76.5" y2="587.381" gradientUnits="userSpaceOnUse">
<stop stop-color="#F7DD43"/>
<stop offset="1" stop-color="#F7DD43" stop-opacity="0"/>
</linearGradient>
<linearGradient id="paint39_linear_122_130" x1="76.5" y1="276" x2="76.5" y2="587.381" gradientUnits="userSpaceOnUse">
<stop stop-color="#F7DD43"/>
<stop offset="1" stop-color="#F7DD43" stop-opacity="0"/>
</linearGradient>
<linearGradient id="paint40_linear_122_130" x1="76.5" y1="276" x2="76.5" y2="587.381" gradientUnits="userSpaceOnUse">
<stop stop-color="#F7DD43"/>
<stop offset="1" stop-color="#F7DD43" stop-opacity="0"/>
</linearGradient>
<linearGradient id="paint41_linear_122_130" x1="76.5" y1="276" x2="76.5" y2="587.381" gradientUnits="userSpaceOnUse">
<stop stop-color="#F7DD43"/>
<stop offset="1" stop-color="#F7DD43" stop-opacity="0"/>
</linearGradient>
<linearGradient id="paint42_linear_122_130" x1="76.5" y1="276" x2="76.5" y2="587.381" gradientUnits="userSpaceOnUse">
<stop stop-color="#F7DD43"/>
<stop offset="1" stop-color="#F7DD43" stop-opacity="0"/>
</linearGradient>
<linearGradient id="paint43_linear_122_130" x1="76.5" y1="276" x2="76.5" y2="587.381" gradientUnits="userSpaceOnUse">
<stop stop-color="#F7DD43"/>
<stop offset="1" stop-color="#F7DD43" stop-opacity="0"/>
</linearGradient>
<linearGradient id="paint44_linear_122_130" x1="76.5" y1="276" x2="76.5" y2="587.381" gradientUnits="userSpaceOnUse">
<stop stop-color="#F7DD43"/>
<stop offset="1" stop-color="#F7DD43" stop-opacity="0"/>
</linearGradient>
<linearGradient id="paint45_linear_122_130" x1="76.5" y1="276" x2="76.5" y2="587.381" gradientUnits="userSpaceOnUse">
<stop stop-color="#F7DD43"/>
<stop offset="1" stop-color="#F7DD43" stop-opacity="0"/>
</linearGradient>
<linearGradient id="paint46_linear_122_130" x1="76.5" y1="276" x2="76.5" y2="587.381" gradientUnits="userSpaceOnUse">
<stop stop-color="#F7DD43"/>
<stop offset="1" stop-color="#F7DD43" stop-opacity="0"/>
</linearGradient>
<linearGradient id="paint47_linear_122_130" x1="962.5" y1="-24" x2="962.5" y2="274.818" gradientUnits="userSpaceOnUse">
<stop stop-color="#F7DD43"/>
<stop offset="1" stop-color="#F7DD43" stop-opacity="0"/>
</linearGradient>
<linearGradient id="paint48_linear_122_130" x1="962.5" y1="-24" x2="962.5" y2="274.818" gradientUnits="userSpaceOnUse">
<stop stop-color="#F7DD43"/>
<stop offset="1" stop-color="#F7DD43" stop-opacity="0"/>
</linearGradient>
<linearGradient id="paint49_linear_122_130" x1="962.5" y1="-24" x2="962.5" y2="274.818" gradientUnits="userSpaceOnUse">
<stop stop-color="#F7DD43"/>
<stop offset="1" stop-color="#F7DD43" stop-opacity="0"/>
</linearGradient>
<linearGradient id="paint50_linear_122_130" x1="962.5" y1="-24" x2="962.5" y2="274.818" gradientUnits="userSpaceOnUse">
<stop stop-color="#F7DD43"/>
<stop offset="1" stop-color="#F7DD43" stop-opacity="0"/>
</linearGradient>
<linearGradient id="paint51_linear_122_130" x1="962.5" y1="-24" x2="962.5" y2="274.818" gradientUnits="userSpaceOnUse">
<stop stop-color="#F7DD43"/>
<stop offset="1" stop-color="#F7DD43" stop-opacity="0"/>
</linearGradient>
<linearGradient id="paint52_linear_122_130" x1="962.5" y1="-24" x2="962.5" y2="274.818" gradientUnits="userSpaceOnUse">
<stop stop-color="#F7DD43"/>
<stop offset="1" stop-color="#F7DD43" stop-opacity="0"/>
</linearGradient>
<linearGradient id="paint53_linear_122_130" x1="962.5" y1="-24" x2="962.5" y2="274.818" gradientUnits="userSpaceOnUse">
<stop stop-color="#F7DD43"/>
<stop offset="1" stop-color="#F7DD43" stop-opacity="0"/>
</linearGradient>
<linearGradient id="paint54_linear_122_130" x1="962.5" y1="-24" x2="962.5" y2="274.818" gradientUnits="userSpaceOnUse">
<stop stop-color="#F7DD43"/>
<stop offset="1" stop-color="#F7DD43" stop-opacity="0"/>
</linearGradient>
<linearGradient id="paint55_linear_122_130" x1="962.5" y1="-24" x2="962.5" y2="274.818" gradientUnits="userSpaceOnUse">
<stop stop-color="#F7DD43"/>
<stop offset="1" stop-color="#F7DD43" stop-opacity="0"/>
</linearGradient>
<linearGradient id="paint56_linear_122_130" x1="962.5" y1="-24" x2="962.5" y2="274.818" gradientUnits="userSpaceOnUse">
<stop stop-color="#F7DD43"/>
<stop offset="1" stop-color="#F7DD43" stop-opacity="0"/>
</linearGradient>
<linearGradient id="paint57_linear_122_130" x1="962.5" y1="-24" x2="962.5" y2="274.818" gradientUnits="userSpaceOnUse">
<stop stop-color="#F7DD43"/>
<stop offset="1" stop-color="#F7DD43" stop-opacity="0"/>
</linearGradient>
<linearGradient id="paint58_linear_122_130" x1="962.5" y1="-24" x2="962.5" y2="274.818" gradientUnits="userSpaceOnUse">
<stop stop-color="#F7DD43"/>
<stop offset="1" stop-color="#F7DD43" stop-opacity="0"/>
</linearGradient>
<linearGradient id="paint59_linear_122_130" x1="962.5" y1="-24" x2="962.5" y2="274.818" gradientUnits="userSpaceOnUse">
<stop stop-color="#F7DD43"/>
<stop offset="1" stop-color="#F7DD43" stop-opacity="0"/>
</linearGradient>
<linearGradient id="paint60_linear_122_130" x1="962.5" y1="-24" x2="962.5" y2="274.818" gradientUnits="userSpaceOnUse">
<stop stop-color="#F7DD43"/>
<stop offset="1" stop-color="#F7DD43" stop-opacity="0"/>
</linearGradient>
<linearGradient id="paint61_linear_122_130" x1="962.5" y1="-24" x2="962.5" y2="274.818" gradientUnits="userSpaceOnUse">
<stop stop-color="#F7DD43"/>
<stop offset="1" stop-color="#F7DD43" stop-opacity="0"/>
</linearGradient>
<linearGradient id="paint62_linear_122_130" x1="962.5" y1="-24" x2="962.5" y2="274.818" gradientUnits="userSpaceOnUse">
<stop stop-color="#F7DD43"/>
<stop offset="1" stop-color="#F7DD43" stop-opacity="0"/>
</linearGradient>
<linearGradient id="paint63_linear_122_130" x1="962.5" y1="-24" x2="962.5" y2="274.818" gradientUnits="userSpaceOnUse">
<stop stop-color="#F7DD43"/>
<stop offset="1" stop-color="#F7DD43" stop-opacity="0"/>
</linearGradient>
<linearGradient id="paint64_linear_122_130" x1="962.5" y1="-24" x2="962.5" y2="274.818" gradientUnits="userSpaceOnUse">
<stop stop-color="#F7DD43"/>
<stop offset="1" stop-color="#F7DD43" stop-opacity="0"/>
</linearGradient>
<linearGradient id="paint65_linear_122_130" x1="962.5" y1="-24" x2="962.5" y2="274.818" gradientUnits="userSpaceOnUse">
<stop stop-color="#F7DD43"/>
<stop offset="1" stop-color="#F7DD43" stop-opacity="0"/>
</linearGradient>
<linearGradient id="paint66_linear_122_130" x1="962.5" y1="-24" x2="962.5" y2="274.818" gradientUnits="userSpaceOnUse">
<stop stop-color="#F7DD43"/>
<stop offset="1" stop-color="#F7DD43" stop-opacity="0"/>
</linearGradient>
<linearGradient id="paint67_linear_122_130" x1="962.5" y1="-24" x2="962.5" y2="274.818" gradientUnits="userSpaceOnUse">
<stop stop-color="#F7DD43"/>
<stop offset="1" stop-color="#F7DD43" stop-opacity="0"/>
</linearGradient>
<linearGradient id="paint68_linear_122_130" x1="962.5" y1="-24" x2="962.5" y2="274.818" gradientUnits="userSpaceOnUse">
<stop stop-color="#F7DD43"/>
<stop offset="1" stop-color="#F7DD43" stop-opacity="0"/>
</linearGradient>
<linearGradient id="paint69_linear_122_130" x1="962.5" y1="-24" x2="962.5" y2="274.818" gradientUnits="userSpaceOnUse">
<stop stop-color="#F7DD43"/>
<stop offset="1" stop-color="#F7DD43" stop-opacity="0"/>
</linearGradient>
<linearGradient id="paint70_linear_122_130" x1="962.5" y1="-24" x2="962.5" y2="274.818" gradientUnits="userSpaceOnUse">
<stop stop-color="#F7DD43"/>
<stop offset="1" stop-color="#F7DD43" stop-opacity="0"/>
</linearGradient>
<linearGradient id="paint71_linear_122_130" x1="962.5" y1="-24" x2="962.5" y2="274.818" gradientUnits="userSpaceOnUse">
<stop stop-color="#F7DD43"/>
<stop offset="1" stop-color="#F7DD43" stop-opacity="0"/>
</linearGradient>
<linearGradient id="paint72_linear_122_130" x1="962.5" y1="-24" x2="962.5" y2="274.818" gradientUnits="userSpaceOnUse">
<stop stop-color="#F7DD43"/>
<stop offset="1" stop-color="#F7DD43" stop-opacity="0"/>
</linearGradient>
<linearGradient id="paint73_linear_122_130" x1="962.5" y1="-24" x2="962.5" y2="274.818" gradientUnits="userSpaceOnUse">
<stop stop-color="#F7DD43"/>
<stop offset="1" stop-color="#F7DD43" stop-opacity="0"/>
</linearGradient>
<linearGradient id="paint74_linear_122_130" x1="962.5" y1="-24" x2="962.5" y2="274.818" gradientUnits="userSpaceOnUse">
<stop stop-color="#F7DD43"/>
<stop offset="1" stop-color="#F7DD43" stop-opacity="0"/>
</linearGradient>
<linearGradient id="paint75_linear_122_130" x1="962.5" y1="-24" x2="962.5" y2="274.818" gradientUnits="userSpaceOnUse">
<stop stop-color="#F7DD43"/>
<stop offset="1" stop-color="#F7DD43" stop-opacity="0"/>
</linearGradient>
<linearGradient id="paint76_linear_122_130" x1="962.5" y1="-24" x2="962.5" y2="274.818" gradientUnits="userSpaceOnUse">
<stop stop-color="#F7DD43"/>
<stop offset="1" stop-color="#F7DD43" stop-opacity="0"/>
</linearGradient>
<linearGradient id="paint77_linear_122_130" x1="962.5" y1="-24" x2="962.5" y2="274.818" gradientUnits="userSpaceOnUse">
<stop stop-color="#F7DD43"/>
<stop offset="1" stop-color="#F7DD43" stop-opacity="0"/>
</linearGradient>
<linearGradient id="paint78_linear_122_130" x1="962.5" y1="-24" x2="962.5" y2="274.818" gradientUnits="userSpaceOnUse">
<stop stop-color="#F7DD43"/>
<stop offset="1" stop-color="#F7DD43" stop-opacity="0"/>
</linearGradient>
<linearGradient id="paint79_linear_122_130" x1="962.5" y1="-24" x2="962.5" y2="274.818" gradientUnits="userSpaceOnUse">
<stop stop-color="#F7DD43"/>
<stop offset="1" stop-color="#F7DD43" stop-opacity="0"/>
</linearGradient>
<linearGradient id="paint80_linear_122_130" x1="962.5" y1="-24" x2="962.5" y2="274.818" gradientUnits="userSpaceOnUse">
<stop stop-color="#F7DD43"/>
<stop offset="1" stop-color="#F7DD43" stop-opacity="0"/>
</linearGradient>
<linearGradient id="paint81_linear_122_130" x1="962.5" y1="-24" x2="962.5" y2="274.818" gradientUnits="userSpaceOnUse">
<stop stop-color="#F7DD43"/>
<stop offset="1" stop-color="#F7DD43" stop-opacity="0"/>
</linearGradient>
<linearGradient id="paint82_linear_122_130" x1="962.5" y1="-24" x2="962.5" y2="274.818" gradientUnits="userSpaceOnUse">
<stop stop-color="#F7DD43"/>
<stop offset="1" stop-color="#F7DD43" stop-opacity="0"/>
</linearGradient>
<linearGradient id="paint83_linear_122_130" x1="962.5" y1="-24" x2="962.5" y2="274.818" gradientUnits="userSpaceOnUse">
<stop stop-color="#F7DD43"/>
<stop offset="1" stop-color="#F7DD43" stop-opacity="0"/>
</linearGradient>
<linearGradient id="paint84_linear_122_130" x1="962.5" y1="-24" x2="962.5" y2="274.818" gradientUnits="userSpaceOnUse">
<stop stop-color="#F7DD43"/>
<stop offset="1" stop-color="#F7DD43" stop-opacity="0"/>
</linearGradient>
<linearGradient id="paint85_linear_122_130" x1="962.5" y1="-24" x2="962.5" y2="274.818" gradientUnits="userSpaceOnUse">
<stop stop-color="#F7DD43"/>
<stop offset="1" stop-color="#F7DD43" stop-opacity="0"/>
</linearGradient>
<linearGradient id="paint86_linear_122_130" x1="962.5" y1="-24" x2="962.5" y2="274.818" gradientUnits="userSpaceOnUse">
<stop stop-color="#F7DD43"/>
<stop offset="1" stop-color="#F7DD43" stop-opacity="0"/>
</linearGradient>
<linearGradient id="paint87_linear_122_130" x1="962.5" y1="-24" x2="962.5" y2="274.818" gradientUnits="userSpaceOnUse">
<stop stop-color="#F7DD43"/>
<stop offset="1" stop-color="#F7DD43" stop-opacity="0"/>
</linearGradient>
<linearGradient id="paint88_linear_122_130" x1="962.5" y1="-24" x2="962.5" y2="274.818" gradientUnits="userSpaceOnUse">
<stop stop-color="#F7DD43"/>
<stop offset="1" stop-color="#F7DD43" stop-opacity="0"/>
</linearGradient>
<linearGradient id="paint89_linear_122_130" x1="962.5" y1="-24" x2="962.5" y2="274.818" gradientUnits="userSpaceOnUse">
<stop stop-color="#F7DD43"/>
<stop offset="1" stop-color="#F7DD43" stop-opacity="0"/>
</linearGradient>
<linearGradient id="paint90_linear_122_130" x1="962.5" y1="-24" x2="962.5" y2="274.818" gradientUnits="userSpaceOnUse">
<stop stop-color="#F7DD43"/>
<stop offset="1" stop-color="#F7DD43" stop-opacity="0"/>
</linearGradient>
<linearGradient id="paint91_linear_122_130" x1="962.5" y1="-24" x2="962.5" y2="274.818" gradientUnits="userSpaceOnUse">
<stop stop-color="#F7DD43"/>
<stop offset="1" stop-color="#F7DD43" stop-opacity="0"/>
</linearGradient>
<linearGradient id="paint92_linear_122_130" x1="962.5" y1="-24" x2="962.5" y2="274.818" gradientUnits="userSpaceOnUse">
<stop stop-color="#F7DD43"/>
<stop offset="1" stop-color="#F7DD43" stop-opacity="0"/>
</linearGradient>
<linearGradient id="paint93_linear_122_130" x1="962.5" y1="-24" x2="962.5" y2="274.818" gradientUnits="userSpaceOnUse">
<stop stop-color="#F7DD43"/>
<stop offset="1" stop-color="#F7DD43" stop-opacity="0"/>
</linearGradient>
<clipPath id="clip0_122_130">
<rect width="1024" height="753" fill="white"/>
</clipPath>
</defs>
</svg>
